<svg width="80" height="28" viewBox="0 0 80 28" fill="none" xmlns="http://www.w3.org/2000/svg">
<path d="M2.68772 26.216C2.64396 26.1937 2.58927 26.1157 2.52364 25.982C2.458 25.8482 2.42518 25.7479 2.42518 25.6811C2.18453 23.9871 2.03138 22.5383 1.96574 21.3347C1.92199 20.1311 1.90011 19.0389 1.90011 18.0582C1.90011 17.0552 1.90011 16.0968 1.90011 15.183C1.90011 14.2691 1.84542 13.255 1.73602 12.1405C1.64851 11.0038 1.47349 9.69987 1.21095 8.2288C0.948414 6.73544 0.554609 4.91889 0.0295354 2.77915C-0.0360988 2.62313 0.00765732 2.44482 0.160804 2.24422C0.31395 2.02133 0.510853 1.87645 0.751512 1.80958C0.99217 1.74272 1.24377 1.80958 1.50631 2.01019C1.76884 2.1885 1.96574 2.61199 2.09701 3.28066C2.11889 3.3921 2.15171 3.5927 2.19546 3.88246C2.2611 4.14992 2.31579 4.43968 2.35955 4.75173C2.40331 5.06377 2.44706 5.35353 2.49082 5.621C2.53457 5.88846 2.56739 6.07792 2.58927 6.18936H2.88462C4.08792 4.0942 5.21464 2.57855 6.26479 1.64242C7.31493 0.683992 8.25569 0.149057 9.08706 0.0376126C9.9403 -0.0961211 10.6513 0.126768 11.2202 0.706281C11.789 1.26351 12.1828 2.02133 12.4016 2.97975C12.6422 3.91589 12.6751 4.98576 12.5 6.18936C12.325 7.37068 11.9093 8.5297 11.253 9.66644C10.5966 10.7809 9.67776 11.8062 8.49635 12.7423C7.33681 13.6562 5.86004 14.3137 4.06604 14.7149V14.9824C4.83177 15.3167 5.5975 15.8182 6.36324 16.4869C7.15085 17.1555 7.93846 17.9022 8.72607 18.7269C9.51368 19.5293 10.3013 20.3429 11.0889 21.1675C11.8765 21.9922 12.6751 22.7389 13.4845 23.4076C14.294 24.054 15.1145 24.5666 15.9458 24.9455C16.7772 25.3021 17.6195 25.4247 18.4727 25.3133C18.5165 25.3133 18.6697 25.1684 18.9322 24.8787C19.1947 24.5889 19.4901 24.2657 19.8183 23.9091C20.1464 23.5525 20.4637 23.2293 20.7699 22.9395C21.0981 22.6275 21.3497 22.4492 21.5247 22.4046C21.7216 22.36 21.7982 22.516 21.7545 22.8726C21.7326 23.207 21.5357 23.8534 21.1638 24.8118C20.7262 26.0377 20.1902 26.8847 19.5557 27.3527C18.9431 27.8431 18.2649 28.0548 17.5211 27.988C16.7772 27.9211 15.9896 27.6313 15.1582 27.1187C14.3269 26.6283 13.4845 26.0154 12.6313 25.2799C11.7781 24.5443 10.9358 23.7419 10.1044 22.8726C9.27302 22.0034 8.47447 21.1675 7.70874 20.3651C6.96488 19.5627 6.27572 18.8383 5.64126 18.192C5.02867 17.5456 4.5036 17.0887 4.06604 16.8212L3.96759 26.216C3.96759 26.3497 3.90195 26.4389 3.77069 26.4835C3.6613 26.5057 3.56284 26.5057 3.47533 26.4835C3.36594 26.4389 3.21279 26.3943 3.01589 26.3497C2.84087 26.2829 2.73148 26.2383 2.68772 26.216ZM3.57378 12.8761C4.58017 12.6532 5.54281 12.1962 6.46169 11.5053C7.38057 10.8143 8.19006 10.0231 8.89015 9.13151C9.61213 8.23995 10.2028 7.31496 10.6623 6.35653C11.1217 5.39811 11.3952 4.55113 11.4827 3.81559C11.5702 3.05777 11.4389 2.46711 11.0889 2.04362C10.7607 1.62013 10.17 1.50868 9.31678 1.70928C8.63856 1.86531 8.03691 2.12163 7.51184 2.47825C6.98676 2.81259 6.51638 3.21379 6.1007 3.68186C5.70689 4.14992 5.34591 4.67372 5.01774 5.25323C4.71144 5.81045 4.42703 6.38997 4.16449 6.99177C3.98947 7.70501 3.83632 8.30682 3.70505 8.79717C3.57378 9.28753 3.47533 9.74445 3.4097 10.1679C3.34406 10.5914 3.32219 11.0149 3.34406 11.4384C3.36594 11.8396 3.44251 12.3188 3.57378 12.8761Z" fill="#0D3A4E"/>
<path d="M25.5913 26.255C24.8812 25.9504 24.3393 25.5601 23.9655 25.0841C23.6104 24.6082 23.3488 24.0846 23.1806 23.5135C23.0124 22.9423 22.9097 22.3331 22.8723 21.6858C22.8349 21.0385 22.7882 20.3816 22.7321 19.7153C22.3023 19.7914 21.8819 19.8295 21.4707 19.8295C21.0596 19.8105 20.6952 19.7724 20.3775 19.7153C20.0785 19.6391 19.8636 19.5439 19.7328 19.4297C19.602 19.2964 19.5833 19.1632 19.6767 19.0299C19.7889 18.8776 20.0505 18.7253 20.4616 18.573C20.8727 18.4207 21.4801 18.2779 22.2836 18.1446C22.3958 18.1446 22.5546 18.0875 22.7602 17.9733C22.9844 17.859 23.1152 17.7734 23.1526 17.7162C23.2834 17.5259 23.4049 17.2022 23.517 16.7453C23.6291 16.2693 23.7413 15.7458 23.8534 15.1746C23.9842 14.6034 24.1337 14.0323 24.3019 13.4611C24.4888 12.8709 24.713 12.3664 24.9746 11.9476C25.255 11.5287 25.582 11.2336 25.9557 11.0623C26.3482 10.8909 26.8247 10.929 27.3853 11.1765C27.4414 11.2146 27.5161 11.2907 27.6096 11.405C27.7217 11.5002 27.8338 11.6049 27.946 11.7191C28.0581 11.8333 28.1609 11.9476 28.2543 12.0618C28.3664 12.157 28.4412 12.2332 28.4785 12.2903C28.5533 13.2232 28.4972 14.0133 28.3104 14.6606C28.1235 15.3079 27.8712 15.86 27.5535 16.3169C27.2358 16.7548 26.8808 17.126 26.4883 17.4307C26.0959 17.7353 25.7221 18.0304 25.3671 18.3159C25.012 18.5825 24.7037 18.8585 24.442 19.1441C24.1991 19.4297 24.0683 19.7819 24.0496 20.2008C24.0122 20.6958 23.9935 21.1527 23.9935 21.5715C23.9935 21.9713 24.0403 22.3521 24.1337 22.7138C24.2271 23.0756 24.386 23.4183 24.6102 23.7419C24.8345 24.0656 25.1615 24.3797 25.5913 24.6843C25.909 24.9128 26.3015 24.9699 26.7686 24.8557C27.2358 24.7414 27.7124 24.5415 28.1982 24.256C28.6841 23.9704 29.1606 23.6467 29.6278 23.285C30.095 22.9233 30.4968 22.6186 30.8332 22.3711C31.1696 22.1046 31.4125 21.9333 31.562 21.8571C31.7115 21.781 31.7115 21.8952 31.562 22.1998C31.3004 22.8281 30.992 23.4563 30.637 24.0846C30.2819 24.7129 29.8614 25.246 29.3755 25.6838C28.8897 26.1217 28.329 26.4073 27.6937 26.5406C27.077 26.6929 26.3762 26.5977 25.5913 26.255ZM24.6943 15.8885C24.6756 15.9837 24.6383 16.1741 24.5822 16.4597C24.5261 16.7453 24.4981 16.9357 24.4981 17.0309C24.5168 17.0499 24.5448 17.0594 24.5822 17.0594C24.6383 17.0594 24.6756 17.0499 24.6943 17.0309C24.7504 16.9928 24.8345 16.9357 24.9466 16.8595C25.0587 16.7643 25.1709 16.6786 25.283 16.6025C25.3951 16.5073 25.4979 16.4216 25.5913 16.3455C25.7035 16.2503 25.7782 16.1836 25.8156 16.1456C26.3762 15.5744 26.7686 15.0508 26.9929 14.5749C27.2358 14.0799 27.3573 13.6801 27.3573 13.3755C27.3573 13.0708 27.2545 12.8709 27.049 12.7758C26.8621 12.6615 26.6285 12.6901 26.3482 12.8614C26.0865 13.0328 25.8062 13.3659 25.5072 13.8609C25.2082 14.3369 24.9373 15.0128 24.6943 15.8885Z" fill="#0D3A4E"/>
<path d="M35.7651 26.4835C35.6566 25.5769 35.6132 24.9578 35.6132 23.8744V19.5186C35.6132 19.0764 36.0039 17.9709 36.3728 17.4181C37.0456 16.4231 38.0656 15.804 39.0423 15.804C40.5832 15.804 41.3862 16.799 41.3862 18.7226V23.8744C41.3862 25.0242 41.3428 25.6875 41.2343 26.4835H43.5131C43.4046 25.6875 43.3612 25.0463 43.3612 23.8965V19.5186C43.3612 18.9658 43.7301 17.9045 44.1208 17.3297C44.7719 16.3568 45.7268 15.804 46.7469 15.804C47.3545 15.804 47.8537 15.9367 48.2227 16.202C48.8738 16.6663 49.1125 17.3739 49.1125 18.7226V23.8744C49.1125 25.0905 49.0908 25.599 48.9606 26.4835H51.2394C51.1309 25.6875 51.0875 25.0463 51.0875 23.8965V18.4131C51.0875 17.0422 50.8487 16.1357 50.2628 15.406C49.59 14.5216 48.5048 14.0794 47.0724 14.0794C45.2276 14.0794 44.0557 14.7427 42.9705 16.3789C42.7535 15.7598 42.6233 15.4945 42.2977 15.1628C41.6466 14.4332 40.7134 14.0794 39.4763 14.0794C37.7401 14.0794 36.3511 14.8311 35.5698 16.2241C35.5698 16.0915 35.5698 16.0915 35.5915 15.8925C35.5915 15.8261 35.6132 15.4945 35.6132 15.4281V14.3226H33.508C33.6165 15.1186 33.6599 15.7156 33.6599 16.9317V23.8744C33.6599 24.9799 33.6165 25.6433 33.508 26.4835H35.7651Z" fill="#0D3A4E"/>
<path d="M56.2767 26.4835V25.4C56.255 24.9357 56.255 24.9357 56.2333 24.7367C56.2333 24.6925 56.2333 24.6262 56.2333 24.5598C57.2533 25.997 58.7074 26.7046 60.5739 26.7046C64.0464 26.7046 66.1516 24.2945 66.1516 20.3146C66.1516 16.401 64.1115 14.0573 60.7041 14.0573C58.7508 14.0573 57.275 14.809 56.2333 16.3568C56.2767 15.8482 56.2984 15.406 56.2984 14.7869V12.0673C56.2984 10.9397 56.3418 10.2764 56.4503 9.43615H54.2149C54.3234 10.3648 54.3668 11.0723 54.3668 12.0673V23.8081C54.3668 24.9578 54.3234 25.6433 54.2149 26.4835H56.2767ZM64.1332 20.3146C64.1332 23.2332 62.7225 25.002 60.3786 25.002C57.9912 25.002 56.3201 23.0784 56.3201 20.3367C56.3201 17.6171 58.0129 15.7598 60.4654 15.7598C62.7876 15.7598 64.1332 17.4402 64.1332 20.3146Z" fill="#0D3A4E"/>
<path d="M74.0751 26.793C77.6561 26.793 80 24.2724 80 20.3809C80 16.4894 77.6778 14.0131 74.0317 14.0131C70.3855 14.0131 68.0633 16.5116 68.0633 20.403C68.0633 24.3166 70.3855 26.793 74.0751 26.793ZM74.0751 15.6714C76.5058 15.6714 78.0033 17.4844 78.0033 20.4251C78.0033 23.3437 76.5058 25.1126 74.0317 25.1126C71.5792 25.1126 70.06 23.2995 70.06 20.3809C70.06 17.4623 71.6009 15.6714 74.0751 15.6714Z" fill="#0D3A4E"/>
</svg>
